<svg width="189" height="56" viewBox="0 0 189 56" fill="none" xmlns="http://www.w3.org/2000/svg">
<g clip-path="url(#clip0_8715_356918)">
<path d="M36.0182 28.4145L36.0182 28.4145L36.0182 28.4243C36.0198 29.8761 36.4487 31.2954 37.2514 32.5051C37.9343 33.5342 38.862 34.3729 39.947 34.9486C39.5001 36.213 38.8813 37.4109 38.1073 38.5084L38.1022 38.5156L38.0974 38.5228C37.4669 39.466 36.8667 40.3256 36.1891 40.9583C35.5258 41.5777 34.8348 41.9355 34.0193 41.9488L34.0193 41.9487L34.0145 41.9488C33.1755 41.9682 32.6262 41.7344 31.9207 41.434L31.9027 41.4263C31.1692 41.1141 30.311 40.7571 29.0032 40.7571C27.6946 40.7571 26.8265 41.0871 26.0771 41.4001C26.0283 41.4205 25.9804 41.4406 25.9332 41.4604C25.2661 41.7405 24.7343 41.9637 23.9647 41.9959C23.2417 42.0222 22.5412 41.6634 21.8142 40.981C21.0865 40.298 20.4223 39.3765 19.7691 38.4425C18.529 36.6298 17.4149 34.0547 16.9419 31.3729C16.4678 28.6844 16.6516 25.9752 17.8939 23.8244L17.8939 23.8244L17.8994 23.8146C18.4656 22.7971 19.2858 21.9436 20.28 21.3373C21.273 20.7317 22.4058 20.3933 23.5682 20.355C24.4067 20.3387 25.2474 20.6228 26.1055 20.9617C26.2108 21.0032 26.3179 21.0463 26.4258 21.0896C26.7376 21.2149 27.0552 21.3425 27.3492 21.4434C27.7448 21.5792 28.1779 21.6966 28.6017 21.6966C29.0343 21.6966 29.5025 21.553 29.9247 21.4006C30.1561 21.3171 30.4304 21.2085 30.7073 21.0988C30.9195 21.0148 31.1333 20.9301 31.3306 20.8556C32.3286 20.4789 33.3546 20.1809 34.3567 20.2861L34.3822 20.2887L34.4079 20.2895C35.4012 20.3206 36.3735 20.5829 37.2478 21.0555C37.9142 21.4158 38.5095 21.8907 39.0074 22.4567C38.1974 23.0771 37.5179 23.8555 37.0117 24.7474C36.3766 25.8664 36.0348 27.1279 36.0182 28.4145ZM32.3561 16.6498L32.356 16.6497L32.3484 16.6592C31.8707 17.2533 31.2644 17.7313 30.5753 18.0571C30.0945 18.2844 29.5822 18.4336 29.0575 18.5003C29.0865 17.9745 29.1871 17.4541 29.3574 16.9535C29.6025 16.2331 29.9872 15.5681 30.4895 14.9964L30.4897 14.9962C31.3544 14.0113 32.5025 13.3287 33.7667 13.0349C33.7013 14.354 33.2102 15.6244 32.3561 16.6498Z" fill="white" stroke="white" stroke-width="1.4"/>
<mask id="path-2-inside-1_8715_356918" fill="white">
<path d="M67.4645 37.9956H60.8377L59.2463 42.6946H56.4395L62.7162 25.3094H65.6324L71.9092 42.6946H69.0545L67.4645 37.9956ZM61.524 35.8272H66.7768L64.1874 28.201H64.1149L61.524 35.8272Z"/>
<path d="M85.4649 36.3572C85.4649 40.2961 83.3567 42.8268 80.1752 42.8268C79.3693 42.8689 78.5678 42.6833 77.8625 42.2911C77.1572 41.8989 76.5766 41.316 76.1872 40.6092H76.127V46.8873H73.5252V30.0189H76.0436V32.1271H76.0914C76.4988 31.4237 77.0892 30.8438 77.7999 30.4492C78.5106 30.0547 79.3149 29.8601 80.1274 29.8863C83.3443 29.8863 85.4649 32.4293 85.4649 36.3572ZM82.7907 36.3572C82.7907 33.791 81.4645 32.1039 79.441 32.1039C77.4532 32.1039 76.116 33.8266 76.116 36.3572C76.116 38.9111 77.4532 40.6215 79.441 40.6215C81.4645 40.6215 82.7907 38.9467 82.7907 36.3572Z"/>
<path d="M99.4157 36.3572C99.4157 40.2961 97.3075 42.8267 94.126 42.8267C93.3201 42.8689 92.5186 42.6833 91.8133 42.2911C91.108 41.8989 90.5274 41.316 90.1379 40.6091H90.0777V46.8873H87.476V30.0189H89.9943V32.1271H90.0422C90.4495 31.4237 91.0399 30.8438 91.7506 30.4492C92.4613 30.0547 93.2657 29.8601 94.0781 29.8863C97.2952 29.8863 99.4157 32.4293 99.4157 36.3572ZM96.7414 36.3572C96.7414 33.791 95.4153 32.1039 93.3918 32.1039C91.4039 32.1039 90.0668 33.8266 90.0668 36.3572C90.0668 38.9111 91.4039 40.6215 93.3918 40.6215C95.4153 40.6215 96.7414 38.9467 96.7414 36.3572Z"/>
<path d="M108.636 37.8507C108.829 39.5747 110.504 40.7067 112.792 40.7067C114.985 40.7067 116.563 39.5746 116.563 38.0201C116.563 36.6707 115.611 35.8627 113.358 35.309L111.105 34.7662C107.913 33.9951 106.431 32.5022 106.431 30.0795C106.431 27.0799 109.045 25.0195 112.757 25.0195C116.43 25.0195 118.949 27.0799 119.033 30.0795H116.407C116.25 28.3445 114.816 27.2973 112.72 27.2973C110.624 27.2973 109.19 28.3569 109.19 29.899C109.19 31.1281 110.106 31.8514 112.346 32.405L114.262 32.8754C117.829 33.7189 119.311 35.1518 119.311 37.6947C119.311 40.9472 116.72 42.9843 112.599 42.9843C108.744 42.9843 106.141 40.9951 105.973 37.8505L108.636 37.8507Z"/>
<path d="M124.926 27.0198V30.0194H127.336V32.0798H124.926V39.0675C124.926 40.153 125.409 40.6589 126.468 40.6589C126.754 40.6539 127.04 40.6338 127.324 40.5987V42.6467C126.848 42.7357 126.363 42.776 125.879 42.767C123.313 42.767 122.312 41.8032 122.312 39.3449V32.0798H120.469V30.0194H122.312V27.0198H124.926Z"/>
<path d="M128.732 36.3577C128.732 32.3696 131.081 29.8636 134.744 29.8636C138.419 29.8636 140.757 32.3696 140.757 36.3577C140.757 40.3567 138.431 42.8518 134.744 42.8518C131.058 42.8518 128.732 40.3567 128.732 36.3577ZM138.106 36.3577C138.106 33.622 136.852 32.0073 134.744 32.0073C132.636 32.0073 131.383 33.6343 131.383 36.3577C131.383 39.1044 132.636 40.7067 134.744 40.7067C136.852 40.7067 138.106 39.1044 138.106 36.3577Z"/>
<path d="M142.902 30.0188H145.383V32.1762H145.443C145.611 31.5024 146.006 30.907 146.561 30.4899C147.116 30.0729 147.798 29.8597 148.492 29.8862C148.792 29.8851 149.091 29.9177 149.384 29.9833V32.4169C149.005 32.3012 148.61 32.2481 148.215 32.2596C147.837 32.2443 147.46 32.3109 147.11 32.455C146.76 32.599 146.446 32.8171 146.188 33.0941C145.931 33.3711 145.736 33.7007 145.618 34.06C145.5 34.4193 145.461 34.8 145.504 35.1758V42.694H142.902L142.902 30.0188Z"/>
<path d="M161.379 38.9717C161.029 41.2727 158.788 42.8518 155.921 42.8518C152.234 42.8518 149.946 40.3813 149.946 36.4178C149.946 32.4421 152.246 29.8635 155.812 29.8635C159.319 29.8635 161.524 32.2725 161.524 36.1157V37.0071H152.572V37.1643C152.531 37.6308 152.589 38.1007 152.743 38.5429C152.897 38.9851 153.144 39.3894 153.467 39.729C153.789 40.0685 154.18 40.3356 154.614 40.5124C155.047 40.6892 155.514 40.7718 155.982 40.7546C156.596 40.8122 157.213 40.6698 157.741 40.3485C158.268 40.0273 158.678 39.5445 158.909 38.9717L161.379 38.9717ZM152.584 35.1887H158.921C158.944 34.7693 158.881 34.3496 158.734 33.9559C158.588 33.5622 158.361 33.203 158.069 32.901C157.778 32.5989 157.426 32.3604 157.038 32.2005C156.649 32.0406 156.232 31.9627 155.812 31.9717C155.388 31.9692 154.968 32.0506 154.576 32.2113C154.184 32.3719 153.828 32.6086 153.528 32.9077C153.228 33.2068 152.99 33.5623 152.828 33.9538C152.666 34.3454 152.583 34.765 152.584 35.1887Z"/>
</mask>
<path d="M67.4645 37.9956H60.8377L59.2463 42.6946H56.4395L62.7162 25.3094H65.6324L71.9092 42.6946H69.0545L67.4645 37.9956ZM61.524 35.8272H66.7768L64.1874 28.201H64.1149L61.524 35.8272Z" fill="white"/>
<path d="M85.4649 36.3572C85.4649 40.2961 83.3567 42.8268 80.1752 42.8268C79.3693 42.8689 78.5678 42.6833 77.8625 42.2911C77.1572 41.8989 76.5766 41.316 76.1872 40.6092H76.127V46.8873H73.5252V30.0189H76.0436V32.1271H76.0914C76.4988 31.4237 77.0892 30.8438 77.7999 30.4492C78.5106 30.0547 79.3149 29.8601 80.1274 29.8863C83.3443 29.8863 85.4649 32.4293 85.4649 36.3572ZM82.7907 36.3572C82.7907 33.791 81.4645 32.1039 79.441 32.1039C77.4532 32.1039 76.116 33.8266 76.116 36.3572C76.116 38.9111 77.4532 40.6215 79.441 40.6215C81.4645 40.6215 82.7907 38.9467 82.7907 36.3572Z" fill="white"/>
<path d="M99.4157 36.3572C99.4157 40.2961 97.3075 42.8267 94.126 42.8267C93.3201 42.8689 92.5186 42.6833 91.8133 42.2911C91.108 41.8989 90.5274 41.316 90.1379 40.6091H90.0777V46.8873H87.476V30.0189H89.9943V32.1271H90.0422C90.4495 31.4237 91.0399 30.8438 91.7506 30.4492C92.4613 30.0547 93.2657 29.8601 94.0781 29.8863C97.2952 29.8863 99.4157 32.4293 99.4157 36.3572ZM96.7414 36.3572C96.7414 33.791 95.4153 32.1039 93.3918 32.1039C91.4039 32.1039 90.0668 33.8266 90.0668 36.3572C90.0668 38.9111 91.4039 40.6215 93.3918 40.6215C95.4153 40.6215 96.7414 38.9467 96.7414 36.3572Z" fill="white"/>
<path d="M108.636 37.8507C108.829 39.5747 110.504 40.7067 112.792 40.7067C114.985 40.7067 116.563 39.5746 116.563 38.0201C116.563 36.6707 115.611 35.8627 113.358 35.309L111.105 34.7662C107.913 33.9951 106.431 32.5022 106.431 30.0795C106.431 27.0799 109.045 25.0195 112.757 25.0195C116.43 25.0195 118.949 27.0799 119.033 30.0795H116.407C116.25 28.3445 114.816 27.2973 112.72 27.2973C110.624 27.2973 109.19 28.3569 109.19 29.899C109.19 31.1281 110.106 31.8514 112.346 32.405L114.262 32.8754C117.829 33.7189 119.311 35.1518 119.311 37.6947C119.311 40.9472 116.72 42.9843 112.599 42.9843C108.744 42.9843 106.141 40.9951 105.973 37.8505L108.636 37.8507Z" fill="white"/>
<path d="M124.926 27.0198V30.0194H127.336V32.0798H124.926V39.0675C124.926 40.153 125.409 40.6589 126.468 40.6589C126.754 40.6539 127.04 40.6338 127.324 40.5987V42.6467C126.848 42.7357 126.363 42.776 125.879 42.767C123.313 42.767 122.312 41.8032 122.312 39.3449V32.0798H120.469V30.0194H122.312V27.0198H124.926Z" fill="white"/>
<path d="M128.732 36.3577C128.732 32.3696 131.081 29.8636 134.744 29.8636C138.419 29.8636 140.757 32.3696 140.757 36.3577C140.757 40.3567 138.431 42.8518 134.744 42.8518C131.058 42.8518 128.732 40.3567 128.732 36.3577ZM138.106 36.3577C138.106 33.622 136.852 32.0073 134.744 32.0073C132.636 32.0073 131.383 33.6343 131.383 36.3577C131.383 39.1044 132.636 40.7067 134.744 40.7067C136.852 40.7067 138.106 39.1044 138.106 36.3577Z" fill="white"/>
<path d="M142.902 30.0188H145.383V32.1762H145.443C145.611 31.5024 146.006 30.907 146.561 30.4899C147.116 30.0729 147.798 29.8597 148.492 29.8862C148.792 29.8851 149.091 29.9177 149.384 29.9833V32.4169C149.005 32.3012 148.61 32.2481 148.215 32.2596C147.837 32.2443 147.46 32.3109 147.11 32.455C146.76 32.599 146.446 32.8171 146.188 33.0941C145.931 33.3711 145.736 33.7007 145.618 34.06C145.5 34.4193 145.461 34.8 145.504 35.1758V42.694H142.902L142.902 30.0188Z" fill="white"/>
<path d="M161.379 38.9717C161.029 41.2727 158.788 42.8518 155.921 42.8518C152.234 42.8518 149.946 40.3813 149.946 36.4178C149.946 32.4421 152.246 29.8635 155.812 29.8635C159.319 29.8635 161.524 32.2725 161.524 36.1157V37.0071H152.572V37.1643C152.531 37.6308 152.589 38.1007 152.743 38.5429C152.897 38.9851 153.144 39.3894 153.467 39.729C153.789 40.0685 154.18 40.3356 154.614 40.5124C155.047 40.6892 155.514 40.7718 155.982 40.7546C156.596 40.8122 157.213 40.6698 157.741 40.3485C158.268 40.0273 158.678 39.5445 158.909 38.9717L161.379 38.9717ZM152.584 35.1887H158.921C158.944 34.7693 158.881 34.3496 158.734 33.9559C158.588 33.5622 158.361 33.203 158.069 32.901C157.778 32.5989 157.426 32.3604 157.038 32.2005C156.649 32.0406 156.232 31.9627 155.812 31.9717C155.388 31.9692 154.968 32.0506 154.576 32.2113C154.184 32.3719 153.828 32.6086 153.528 32.9077C153.228 33.2068 152.99 33.5623 152.828 33.9538C152.666 34.3454 152.583 34.765 152.584 35.1887Z" fill="white"/>
<path d="M67.4645 37.9956H60.8377L59.2463 42.6946H56.4395L62.7162 25.3094H65.6324L71.9092 42.6946H69.0545L67.4645 37.9956ZM61.524 35.8272H66.7768L64.1874 28.201H64.1149L61.524 35.8272Z" stroke="white" stroke-width="2.8" mask="url(#path-2-inside-1_8715_356918)"/>
<path d="M85.4649 36.3572C85.4649 40.2961 83.3567 42.8268 80.1752 42.8268C79.3693 42.8689 78.5678 42.6833 77.8625 42.2911C77.1572 41.8989 76.5766 41.316 76.1872 40.6092H76.127V46.8873H73.5252V30.0189H76.0436V32.1271H76.0914C76.4988 31.4237 77.0892 30.8438 77.7999 30.4492C78.5106 30.0547 79.3149 29.8601 80.1274 29.8863C83.3443 29.8863 85.4649 32.4293 85.4649 36.3572ZM82.7907 36.3572C82.7907 33.791 81.4645 32.1039 79.441 32.1039C77.4532 32.1039 76.116 33.8266 76.116 36.3572C76.116 38.9111 77.4532 40.6215 79.441 40.6215C81.4645 40.6215 82.7907 38.9467 82.7907 36.3572Z" stroke="white" stroke-width="2.8" mask="url(#path-2-inside-1_8715_356918)"/>
<path d="M99.4157 36.3572C99.4157 40.2961 97.3075 42.8267 94.126 42.8267C93.3201 42.8689 92.5186 42.6833 91.8133 42.2911C91.108 41.8989 90.5274 41.316 90.1379 40.6091H90.0777V46.8873H87.476V30.0189H89.9943V32.1271H90.0422C90.4495 31.4237 91.0399 30.8438 91.7506 30.4492C92.4613 30.0547 93.2657 29.8601 94.0781 29.8863C97.2952 29.8863 99.4157 32.4293 99.4157 36.3572ZM96.7414 36.3572C96.7414 33.791 95.4153 32.1039 93.3918 32.1039C91.4039 32.1039 90.0668 33.8266 90.0668 36.3572C90.0668 38.9111 91.4039 40.6215 93.3918 40.6215C95.4153 40.6215 96.7414 38.9467 96.7414 36.3572Z" stroke="white" stroke-width="2.8" mask="url(#path-2-inside-1_8715_356918)"/>
<path d="M108.636 37.8507C108.829 39.5747 110.504 40.7067 112.792 40.7067C114.985 40.7067 116.563 39.5746 116.563 38.0201C116.563 36.6707 115.611 35.8627 113.358 35.309L111.105 34.7662C107.913 33.9951 106.431 32.5022 106.431 30.0795C106.431 27.0799 109.045 25.0195 112.757 25.0195C116.43 25.0195 118.949 27.0799 119.033 30.0795H116.407C116.25 28.3445 114.816 27.2973 112.72 27.2973C110.624 27.2973 109.19 28.3569 109.19 29.899C109.19 31.1281 110.106 31.8514 112.346 32.405L114.262 32.8754C117.829 33.7189 119.311 35.1518 119.311 37.6947C119.311 40.9472 116.72 42.9843 112.599 42.9843C108.744 42.9843 106.141 40.9951 105.973 37.8505L108.636 37.8507Z" stroke="white" stroke-width="2.8" mask="url(#path-2-inside-1_8715_356918)"/>
<path d="M124.926 27.0198V30.0194H127.336V32.0798H124.926V39.0675C124.926 40.153 125.409 40.6589 126.468 40.6589C126.754 40.6539 127.04 40.6338 127.324 40.5987V42.6467C126.848 42.7357 126.363 42.776 125.879 42.767C123.313 42.767 122.312 41.8032 122.312 39.3449V32.0798H120.469V30.0194H122.312V27.0198H124.926Z" stroke="white" stroke-width="2.8" mask="url(#path-2-inside-1_8715_356918)"/>
<path d="M128.732 36.3577C128.732 32.3696 131.081 29.8636 134.744 29.8636C138.419 29.8636 140.757 32.3696 140.757 36.3577C140.757 40.3567 138.431 42.8518 134.744 42.8518C131.058 42.8518 128.732 40.3567 128.732 36.3577ZM138.106 36.3577C138.106 33.622 136.852 32.0073 134.744 32.0073C132.636 32.0073 131.383 33.6343 131.383 36.3577C131.383 39.1044 132.636 40.7067 134.744 40.7067C136.852 40.7067 138.106 39.1044 138.106 36.3577Z" stroke="white" stroke-width="2.8" mask="url(#path-2-inside-1_8715_356918)"/>
<path d="M142.902 30.0188H145.383V32.1762H145.443C145.611 31.5024 146.006 30.907 146.561 30.4899C147.116 30.0729 147.798 29.8597 148.492 29.8862C148.792 29.8851 149.091 29.9177 149.384 29.9833V32.4169C149.005 32.3012 148.61 32.2481 148.215 32.2596C147.837 32.2443 147.46 32.3109 147.11 32.455C146.76 32.599 146.446 32.8171 146.188 33.0941C145.931 33.3711 145.736 33.7007 145.618 34.06C145.5 34.4193 145.461 34.8 145.504 35.1758V42.694H142.902L142.902 30.0188Z" stroke="white" stroke-width="2.8" mask="url(#path-2-inside-1_8715_356918)"/>
<path d="M161.379 38.9717C161.029 41.2727 158.788 42.8518 155.921 42.8518C152.234 42.8518 149.946 40.3813 149.946 36.4178C149.946 32.4421 152.246 29.8635 155.812 29.8635C159.319 29.8635 161.524 32.2725 161.524 36.1157V37.0071H152.572V37.1643C152.531 37.6308 152.589 38.1007 152.743 38.5429C152.897 38.9851 153.144 39.3894 153.467 39.729C153.789 40.0685 154.18 40.3356 154.614 40.5124C155.047 40.6892 155.514 40.7718 155.982 40.7546C156.596 40.8122 157.213 40.6698 157.741 40.3485C158.268 40.0273 158.678 39.5445 158.909 38.9717L161.379 38.9717ZM152.584 35.1887H158.921C158.944 34.7693 158.881 34.3496 158.734 33.9559C158.588 33.5622 158.361 33.203 158.069 32.901C157.778 32.5989 157.426 32.3604 157.038 32.2005C156.649 32.0406 156.232 31.9627 155.812 31.9717C155.388 31.9692 154.968 32.0506 154.576 32.2113C154.184 32.3719 153.828 32.6086 153.528 32.9077C153.228 33.2068 152.99 33.5623 152.828 33.9538C152.666 34.3454 152.583 34.765 152.584 35.1887Z" stroke="white" stroke-width="2.8" mask="url(#path-2-inside-1_8715_356918)"/>
<mask id="path-3-inside-2_8715_356918" fill="white">
<path d="M61.199 12.2241C61.7445 12.185 62.2918 12.2674 62.8016 12.4654C63.3113 12.6634 63.7708 12.972 64.1468 13.3691C64.5228 13.7662 64.806 14.2418 64.976 14.7616C65.146 15.2813 65.1985 15.8324 65.1297 16.3749C65.1297 19.0436 63.6873 20.5777 61.199 20.5777H58.1816V12.2241H61.199ZM59.4791 19.3963H61.0541C61.4439 19.4196 61.8339 19.3557 62.1959 19.2092C62.5578 19.0628 62.8826 18.8374 63.1465 18.5497C63.4103 18.2619 63.6067 17.9188 63.7214 17.5456C63.836 17.1723 63.8659 16.7782 63.809 16.3919C63.8618 16.0071 63.8288 15.6155 63.7124 15.2449C63.5961 14.8744 63.3992 14.5342 63.1359 14.2487C62.8726 13.9632 62.5494 13.7395 62.1895 13.5935C61.8296 13.4476 61.4419 13.3831 61.0541 13.4046H59.4791V19.3963Z"/>
<path d="M66.5957 17.4227C66.5561 17.0084 66.6035 16.5904 66.7348 16.1955C66.8662 15.8006 67.0787 15.4375 67.3586 15.1296C67.6385 14.8216 67.9797 14.5755 68.3603 14.4071C68.7409 14.2387 69.1525 14.1518 69.5687 14.1518C69.9848 14.1518 70.3964 14.2387 70.777 14.4071C71.1576 14.5755 71.4988 14.8216 71.7787 15.1296C72.0586 15.4375 72.2711 15.8006 72.4025 16.1955C72.5338 16.5904 72.5812 17.0084 72.5416 17.4227C72.582 17.8374 72.5352 18.256 72.4041 18.6515C72.2731 19.047 72.0608 19.4108 71.7808 19.7194C71.5008 20.0279 71.1593 20.2745 70.7784 20.4433C70.3974 20.612 69.9853 20.6992 69.5687 20.6992C69.152 20.6992 68.7399 20.612 68.3589 20.4433C67.978 20.2745 67.6365 20.0279 67.3565 19.7194C67.0765 19.4108 66.8642 19.047 66.7332 18.6515C66.6021 18.256 66.5553 17.8374 66.5957 17.4227ZM71.2619 17.4227C71.2619 16.0562 70.648 15.2571 69.5707 15.2571C68.4893 15.2571 67.8809 16.0562 67.8809 17.4227C67.8809 18.8001 68.4893 19.5931 69.5707 19.5931C70.6481 19.5931 71.2619 18.7947 71.2619 17.4227Z"/>
<path d="M80.4449 20.5775H79.1543L77.8514 15.9346H77.7529L76.4555 20.5775H75.1771L73.4395 14.2734H74.7014L75.8307 19.0838H75.9236L77.2197 14.2734H78.4133L79.7094 19.0838H79.8078L80.9316 14.2734H82.1758L80.4449 20.5775Z"/>
<path d="M83.6373 14.2728H84.835V15.2743H84.9279C85.0857 14.9146 85.3517 14.6131 85.6889 14.4117C86.0261 14.2104 86.4177 14.1193 86.8092 14.1511C87.1159 14.1281 87.4239 14.1743 87.7104 14.2864C87.9968 14.3986 88.2543 14.5737 88.4639 14.7989C88.6734 15.0241 88.8297 15.2935 88.9209 15.5873C89.0122 15.881 89.0362 16.1916 88.9912 16.4958V20.5768H87.7471V16.8083C87.7471 15.7952 87.3068 15.2914 86.3867 15.2914C86.1785 15.2817 85.9706 15.3171 85.7773 15.3953C85.584 15.4734 85.4099 15.5925 85.2669 15.7442C85.124 15.896 85.0155 16.0768 84.9489 16.2744C84.8824 16.472 84.8594 16.6816 84.8814 16.8889V20.5769H83.6373L83.6373 14.2728Z"/>
<path d="M90.9736 11.8125H92.2178V20.5775H90.9736V11.8125Z"/>
<path d="M93.9476 17.4228C93.908 17.0085 93.9554 16.5905 94.0868 16.1956C94.2183 15.8006 94.4308 15.4376 94.7107 15.1296C94.9906 14.8216 95.3319 14.5755 95.7125 14.4071C96.0931 14.2387 96.5047 14.1518 96.9209 14.1518C97.3371 14.1518 97.7487 14.2387 98.1293 14.4071C98.51 14.5755 98.8512 14.8216 99.1311 15.1296C99.4111 15.4376 99.6236 15.8006 99.755 16.1956C99.8864 16.5905 99.9338 17.0085 99.8942 17.4228C99.9345 17.8375 99.8877 18.2561 99.7566 18.6516C99.6255 19.0472 99.4132 19.4109 99.1331 19.7195C98.8531 20.0281 98.5117 20.2746 98.1307 20.4434C97.7497 20.6121 97.3376 20.6993 96.9209 20.6993C96.5042 20.6993 96.0922 20.6121 95.7112 20.4434C95.3302 20.2746 94.9887 20.0281 94.7087 19.7195C94.4287 19.4109 94.2163 19.0472 94.0852 18.6516C93.9542 18.2561 93.9073 17.8375 93.9476 17.4228ZM98.6138 17.4228C98.6138 16.0563 98 15.2572 96.9226 15.2572C95.8412 15.2572 95.2328 16.0563 95.2328 17.4228C95.2328 18.8003 95.8412 19.5932 96.9226 19.5932C98 19.5932 98.6138 18.7948 98.6138 17.4228Z"/>
<path d="M101.203 18.7947C101.203 17.6599 102.048 17.0058 103.548 16.9128L105.255 16.8143V16.2702C105.255 15.6044 104.815 15.2284 103.965 15.2284C103.27 15.2284 102.789 15.4834 102.651 15.9291H101.446C101.573 14.8463 102.592 14.1518 104.022 14.1518C105.603 14.1518 106.494 14.9386 106.494 16.2702V20.5775H105.296V19.6916H105.198C104.998 20.0094 104.717 20.2685 104.385 20.4424C104.052 20.6162 103.679 20.6987 103.304 20.6814C103.04 20.7089 102.772 20.6807 102.519 20.5985C102.266 20.5163 102.033 20.382 101.835 20.2043C101.637 20.0265 101.479 19.8093 101.37 19.5665C101.261 19.3237 101.204 19.0608 101.203 18.7947ZM105.255 18.256V17.729L103.716 17.8274C102.848 17.8855 102.454 18.1808 102.454 18.7366C102.454 19.304 102.946 19.6342 103.623 19.6342C103.821 19.6542 104.022 19.6342 104.212 19.5753C104.402 19.5164 104.579 19.4197 104.731 19.2912C104.884 19.1626 105.008 19.0047 105.098 18.8268C105.188 18.649 105.242 18.4549 105.255 18.256Z"/>
<path d="M108.129 17.4228C108.129 15.4308 109.153 14.1689 110.746 14.1689C111.14 14.1507 111.531 14.2451 111.873 14.4409C112.216 14.6368 112.495 14.926 112.679 15.2749H112.772V11.8125H114.016V20.5775H112.824V19.5815H112.726C112.527 19.928 112.238 20.2137 111.889 20.4075C111.54 20.6014 111.145 20.6961 110.746 20.6814C109.142 20.6815 108.129 19.4196 108.129 17.4228ZM109.414 17.4228C109.414 18.7599 110.045 19.5645 111.099 19.5645C112.147 19.5645 112.795 18.7483 112.795 17.4282C112.795 16.1144 112.14 15.2865 111.099 15.2865C110.051 15.2865 109.414 16.0966 109.414 17.4228Z"/>
<path d="M119.164 17.4228C119.125 17.0085 119.172 16.5905 119.303 16.1956C119.435 15.8007 119.647 15.4376 119.927 15.1296C120.207 14.8217 120.548 14.5756 120.929 14.4072C121.31 14.2388 121.721 14.1518 122.137 14.1518C122.553 14.1518 122.965 14.2388 123.346 14.4072C123.726 14.5756 124.067 14.8217 124.347 15.1296C124.627 15.4376 124.84 15.8007 124.971 16.1956C125.102 16.5905 125.15 17.0085 125.11 17.4228C125.151 17.8375 125.104 18.2561 124.973 18.6516C124.842 19.0471 124.629 19.4109 124.349 19.7195C124.069 20.028 123.728 20.2746 123.347 20.4434C122.966 20.6121 122.554 20.6993 122.137 20.6993C121.721 20.6993 121.309 20.6121 120.928 20.4434C120.547 20.2746 120.205 20.028 119.925 19.7195C119.645 19.4109 119.433 19.0471 119.302 18.6516C119.171 18.2561 119.124 17.8375 119.164 17.4228ZM123.831 17.4228C123.831 16.0563 123.217 15.2572 122.139 15.2572C121.058 15.2572 120.45 16.0563 120.45 17.4228C120.45 18.8002 121.058 19.5932 122.139 19.5932C123.217 19.5932 123.831 18.7947 123.831 17.4228Z"/>
<path d="M126.779 14.2728H127.977V15.2743H128.07C128.227 14.9146 128.493 14.6131 128.83 14.4117C129.168 14.2104 129.559 14.1193 129.951 14.1511C130.258 14.1281 130.566 14.1743 130.852 14.2864C131.138 14.3986 131.396 14.5737 131.605 14.7989C131.815 15.0241 131.971 15.2935 132.063 15.5873C132.154 15.881 132.178 16.1916 132.133 16.4958V20.5768H130.889V16.8083C130.889 15.7952 130.448 15.2914 129.528 15.2914C129.32 15.2817 129.112 15.3171 128.919 15.3953C128.726 15.4734 128.552 15.5925 128.409 15.7442C128.266 15.896 128.157 16.0768 128.091 16.2744C128.024 16.472 128.001 16.6816 128.023 16.8889V20.5769H126.779V14.2728Z"/>
<path d="M139.163 12.7039V14.3021H140.529V15.3501H139.163V18.5917C139.163 19.2521 139.435 19.5412 140.054 19.5412C140.213 19.5407 140.371 19.5311 140.529 19.5125V20.5488C140.305 20.5888 140.079 20.6101 139.852 20.6124C138.468 20.6124 137.917 20.1257 137.917 18.9102V15.35H136.917V14.3021H137.917V12.7039H139.163Z"/>
<path d="M142.229 11.8125H143.463V15.2865H143.561C143.727 14.9235 144 14.6203 144.344 14.4182C144.688 14.2161 145.086 14.125 145.483 14.1572C145.788 14.1406 146.094 14.1916 146.377 14.3064C146.66 14.4213 146.914 14.5972 147.122 14.8217C147.329 15.0462 147.484 15.3137 147.576 15.605C147.668 15.8964 147.695 16.2046 147.654 16.5074V20.5775H146.409V16.8144C146.409 15.8074 145.94 15.2975 145.061 15.2975C144.847 15.2799 144.632 15.3093 144.431 15.3836C144.229 15.4579 144.047 15.5752 143.896 15.7275C143.744 15.8797 143.628 16.0631 143.555 16.2649C143.483 16.4667 143.455 16.682 143.474 16.8957V20.5775H142.23L142.229 11.8125Z"/>
<path d="M154.908 18.8754C154.739 19.4516 154.373 19.9499 153.873 20.2833C153.374 20.6168 152.773 20.764 152.176 20.6992C151.761 20.7102 151.348 20.6306 150.967 20.4661C150.585 20.3016 150.244 20.056 149.967 19.7464C149.69 19.4368 149.484 19.0706 149.362 18.6733C149.241 18.2759 149.208 17.8569 149.264 17.4453C149.209 17.0325 149.243 16.6126 149.364 16.214C149.485 15.8155 149.691 15.4476 149.966 15.1353C150.242 14.823 150.581 14.5736 150.962 14.4039C151.342 14.2342 151.754 14.1482 152.171 14.1518C153.925 14.1518 154.983 15.3502 154.983 17.3298V17.7639H150.532V17.8336C150.512 18.065 150.541 18.2978 150.617 18.5173C150.693 18.7367 150.814 18.9379 150.972 19.108C151.13 19.278 151.322 19.4131 151.535 19.5047C151.748 19.5962 151.978 19.6422 152.211 19.6396C152.508 19.6753 152.81 19.6218 153.077 19.4857C153.344 19.3496 153.564 19.1371 153.71 18.8754L154.908 18.8754ZM150.532 16.8438H153.716C153.732 16.6322 153.703 16.4197 153.631 16.2199C153.56 16.0201 153.448 15.8374 153.302 15.6836C153.155 15.5298 152.979 15.4083 152.783 15.3268C152.587 15.2454 152.376 15.2058 152.164 15.2107C151.949 15.208 151.735 15.2484 151.536 15.3295C151.337 15.4106 151.156 15.5308 151.004 15.683C150.851 15.8352 150.731 16.0163 150.65 16.2157C150.569 16.415 150.529 16.6286 150.532 16.8438Z"/>
</mask>
<path d="M61.199 12.2241C61.7445 12.185 62.2918 12.2674 62.8016 12.4654C63.3113 12.6634 63.7708 12.972 64.1468 13.3691C64.5228 13.7662 64.806 14.2418 64.976 14.7616C65.146 15.2813 65.1985 15.8324 65.1297 16.3749C65.1297 19.0436 63.6873 20.5777 61.199 20.5777H58.1816V12.2241H61.199ZM59.4791 19.3963H61.0541C61.4439 19.4196 61.8339 19.3557 62.1959 19.2092C62.5578 19.0628 62.8826 18.8374 63.1465 18.5497C63.4103 18.2619 63.6067 17.9188 63.7214 17.5456C63.836 17.1723 63.8659 16.7782 63.809 16.3919C63.8618 16.0071 63.8288 15.6155 63.7124 15.2449C63.5961 14.8744 63.3992 14.5342 63.1359 14.2487C62.8726 13.9632 62.5494 13.7395 62.1895 13.5935C61.8296 13.4476 61.4419 13.3831 61.0541 13.4046H59.4791V19.3963Z" fill="white"/>
<path d="M66.5957 17.4227C66.5561 17.0084 66.6035 16.5904 66.7348 16.1955C66.8662 15.8006 67.0787 15.4375 67.3586 15.1296C67.6385 14.8216 67.9797 14.5755 68.3603 14.4071C68.7409 14.2387 69.1525 14.1518 69.5687 14.1518C69.9848 14.1518 70.3964 14.2387 70.777 14.4071C71.1576 14.5755 71.4988 14.8216 71.7787 15.1296C72.0586 15.4375 72.2711 15.8006 72.4025 16.1955C72.5338 16.5904 72.5812 17.0084 72.5416 17.4227C72.582 17.8374 72.5352 18.256 72.4041 18.6515C72.2731 19.047 72.0608 19.4108 71.7808 19.7194C71.5008 20.0279 71.1593 20.2745 70.7784 20.4433C70.3974 20.612 69.9853 20.6992 69.5687 20.6992C69.152 20.6992 68.7399 20.612 68.3589 20.4433C67.978 20.2745 67.6365 20.0279 67.3565 19.7194C67.0765 19.4108 66.8642 19.047 66.7332 18.6515C66.6021 18.256 66.5553 17.8374 66.5957 17.4227ZM71.2619 17.4227C71.2619 16.0562 70.648 15.2571 69.5707 15.2571C68.4893 15.2571 67.8809 16.0562 67.8809 17.4227C67.8809 18.8001 68.4893 19.5931 69.5707 19.5931C70.6481 19.5931 71.2619 18.7947 71.2619 17.4227Z" fill="white"/>
<path d="M80.4449 20.5775H79.1543L77.8514 15.9346H77.7529L76.4555 20.5775H75.1771L73.4395 14.2734H74.7014L75.8307 19.0838H75.9236L77.2197 14.2734H78.4133L79.7094 19.0838H79.8078L80.9316 14.2734H82.1758L80.4449 20.5775Z" fill="white"/>
<path d="M83.6373 14.2728H84.835V15.2743H84.9279C85.0857 14.9146 85.3517 14.6131 85.6889 14.4117C86.0261 14.2104 86.4177 14.1193 86.8092 14.1511C87.1159 14.1281 87.4239 14.1743 87.7104 14.2864C87.9968 14.3986 88.2543 14.5737 88.4639 14.7989C88.6734 15.0241 88.8297 15.2935 88.9209 15.5873C89.0122 15.881 89.0362 16.1916 88.9912 16.4958V20.5768H87.7471V16.8083C87.7471 15.7952 87.3068 15.2914 86.3867 15.2914C86.1785 15.2817 85.9706 15.3171 85.7773 15.3953C85.584 15.4734 85.4099 15.5925 85.2669 15.7442C85.124 15.896 85.0155 16.0768 84.9489 16.2744C84.8824 16.472 84.8594 16.6816 84.8814 16.8889V20.5769H83.6373L83.6373 14.2728Z" fill="white"/>
<path d="M90.9736 11.8125H92.2178V20.5775H90.9736V11.8125Z" fill="white"/>
<path d="M93.9476 17.4228C93.908 17.0085 93.9554 16.5905 94.0868 16.1956C94.2183 15.8006 94.4308 15.4376 94.7107 15.1296C94.9906 14.8216 95.3319 14.5755 95.7125 14.4071C96.0931 14.2387 96.5047 14.1518 96.9209 14.1518C97.3371 14.1518 97.7487 14.2387 98.1293 14.4071C98.51 14.5755 98.8512 14.8216 99.1311 15.1296C99.4111 15.4376 99.6236 15.8006 99.755 16.1956C99.8864 16.5905 99.9338 17.0085 99.8942 17.4228C99.9345 17.8375 99.8877 18.2561 99.7566 18.6516C99.6255 19.0472 99.4132 19.4109 99.1331 19.7195C98.8531 20.0281 98.5117 20.2746 98.1307 20.4434C97.7497 20.6121 97.3376 20.6993 96.9209 20.6993C96.5042 20.6993 96.0922 20.6121 95.7112 20.4434C95.3302 20.2746 94.9887 20.0281 94.7087 19.7195C94.4287 19.4109 94.2163 19.0472 94.0852 18.6516C93.9542 18.2561 93.9073 17.8375 93.9476 17.4228ZM98.6138 17.4228C98.6138 16.0563 98 15.2572 96.9226 15.2572C95.8412 15.2572 95.2328 16.0563 95.2328 17.4228C95.2328 18.8003 95.8412 19.5932 96.9226 19.5932C98 19.5932 98.6138 18.7948 98.6138 17.4228Z" fill="white"/>
<path d="M101.203 18.7947C101.203 17.6599 102.048 17.0058 103.548 16.9128L105.255 16.8143V16.2702C105.255 15.6044 104.815 15.2284 103.965 15.2284C103.27 15.2284 102.789 15.4834 102.651 15.9291H101.446C101.573 14.8463 102.592 14.1518 104.022 14.1518C105.603 14.1518 106.494 14.9386 106.494 16.2702V20.5775H105.296V19.6916H105.198C104.998 20.0094 104.717 20.2685 104.385 20.4424C104.052 20.6162 103.679 20.6987 103.304 20.6814C103.04 20.7089 102.772 20.6807 102.519 20.5985C102.266 20.5163 102.033 20.382 101.835 20.2043C101.637 20.0265 101.479 19.8093 101.37 19.5665C101.261 19.3237 101.204 19.0608 101.203 18.7947ZM105.255 18.256V17.729L103.716 17.8274C102.848 17.8855 102.454 18.1808 102.454 18.7366C102.454 19.304 102.946 19.6342 103.623 19.6342C103.821 19.6542 104.022 19.6342 104.212 19.5753C104.402 19.5164 104.579 19.4197 104.731 19.2912C104.884 19.1626 105.008 19.0047 105.098 18.8268C105.188 18.649 105.242 18.4549 105.255 18.256Z" fill="white"/>
<path d="M108.129 17.4228C108.129 15.4308 109.153 14.1689 110.746 14.1689C111.14 14.1507 111.531 14.2451 111.873 14.4409C112.216 14.6368 112.495 14.926 112.679 15.2749H112.772V11.8125H114.016V20.5775H112.824V19.5815H112.726C112.527 19.928 112.238 20.2137 111.889 20.4075C111.54 20.6014 111.145 20.6961 110.746 20.6814C109.142 20.6815 108.129 19.4196 108.129 17.4228ZM109.414 17.4228C109.414 18.7599 110.045 19.5645 111.099 19.5645C112.147 19.5645 112.795 18.7483 112.795 17.4282C112.795 16.1144 112.14 15.2865 111.099 15.2865C110.051 15.2865 109.414 16.0966 109.414 17.4228Z" fill="white"/>
<path d="M119.164 17.4228C119.125 17.0085 119.172 16.5905 119.303 16.1956C119.435 15.8007 119.647 15.4376 119.927 15.1296C120.207 14.8217 120.548 14.5756 120.929 14.4072C121.31 14.2388 121.721 14.1518 122.137 14.1518C122.553 14.1518 122.965 14.2388 123.346 14.4072C123.726 14.5756 124.067 14.8217 124.347 15.1296C124.627 15.4376 124.84 15.8007 124.971 16.1956C125.102 16.5905 125.15 17.0085 125.11 17.4228C125.151 17.8375 125.104 18.2561 124.973 18.6516C124.842 19.0471 124.629 19.4109 124.349 19.7195C124.069 20.028 123.728 20.2746 123.347 20.4434C122.966 20.6121 122.554 20.6993 122.137 20.6993C121.721 20.6993 121.309 20.6121 120.928 20.4434C120.547 20.2746 120.205 20.028 119.925 19.7195C119.645 19.4109 119.433 19.0471 119.302 18.6516C119.171 18.2561 119.124 17.8375 119.164 17.4228ZM123.831 17.4228C123.831 16.0563 123.217 15.2572 122.139 15.2572C121.058 15.2572 120.45 16.0563 120.45 17.4228C120.45 18.8002 121.058 19.5932 122.139 19.5932C123.217 19.5932 123.831 18.7947 123.831 17.4228Z" fill="white"/>
<path d="M126.779 14.2728H127.977V15.2743H128.07C128.227 14.9146 128.493 14.6131 128.83 14.4117C129.168 14.2104 129.559 14.1193 129.951 14.1511C130.258 14.1281 130.566 14.1743 130.852 14.2864C131.138 14.3986 131.396 14.5737 131.605 14.7989C131.815 15.0241 131.971 15.2935 132.063 15.5873C132.154 15.881 132.178 16.1916 132.133 16.4958V20.5768H130.889V16.8083C130.889 15.7952 130.448 15.2914 129.528 15.2914C129.32 15.2817 129.112 15.3171 128.919 15.3953C128.726 15.4734 128.552 15.5925 128.409 15.7442C128.266 15.896 128.157 16.0768 128.091 16.2744C128.024 16.472 128.001 16.6816 128.023 16.8889V20.5769H126.779V14.2728Z" fill="white"/>
<path d="M139.163 12.7039V14.3021H140.529V15.3501H139.163V18.5917C139.163 19.2521 139.435 19.5412 140.054 19.5412C140.213 19.5407 140.371 19.5311 140.529 19.5125V20.5488C140.305 20.5888 140.079 20.6101 139.852 20.6124C138.468 20.6124 137.917 20.1257 137.917 18.9102V15.35H136.917V14.3021H137.917V12.7039H139.163Z" fill="white"/>
<path d="M142.229 11.8125H143.463V15.2865H143.561C143.727 14.9235 144 14.6203 144.344 14.4182C144.688 14.2161 145.086 14.125 145.483 14.1572C145.788 14.1406 146.094 14.1916 146.377 14.3064C146.66 14.4213 146.914 14.5972 147.122 14.8217C147.329 15.0462 147.484 15.3137 147.576 15.605C147.668 15.8964 147.695 16.2046 147.654 16.5074V20.5775H146.409V16.8144C146.409 15.8074 145.94 15.2975 145.061 15.2975C144.847 15.2799 144.632 15.3093 144.431 15.3836C144.229 15.4579 144.047 15.5752 143.896 15.7275C143.744 15.8797 143.628 16.0631 143.555 16.2649C143.483 16.4667 143.455 16.682 143.474 16.8957V20.5775H142.23L142.229 11.8125Z" fill="white"/>
<path d="M154.908 18.8754C154.739 19.4516 154.373 19.9499 153.873 20.2833C153.374 20.6168 152.773 20.764 152.176 20.6992C151.761 20.7102 151.348 20.6306 150.967 20.4661C150.585 20.3016 150.244 20.056 149.967 19.7464C149.69 19.4368 149.484 19.0706 149.362 18.6733C149.241 18.2759 149.208 17.8569 149.264 17.4453C149.209 17.0325 149.243 16.6126 149.364 16.214C149.485 15.8155 149.691 15.4476 149.966 15.1353C150.242 14.823 150.581 14.5736 150.962 14.4039C151.342 14.2342 151.754 14.1482 152.171 14.1518C153.925 14.1518 154.983 15.3502 154.983 17.3298V17.7639H150.532V17.8336C150.512 18.065 150.541 18.2978 150.617 18.5173C150.693 18.7367 150.814 18.9379 150.972 19.108C151.13 19.278 151.322 19.4131 151.535 19.5047C151.748 19.5962 151.978 19.6422 152.211 19.6396C152.508 19.6753 152.81 19.6218 153.077 19.4857C153.344 19.3496 153.564 19.1371 153.71 18.8754L154.908 18.8754ZM150.532 16.8438H153.716C153.732 16.6322 153.703 16.4197 153.631 16.2199C153.56 16.0201 153.448 15.8374 153.302 15.6836C153.155 15.5298 152.979 15.4083 152.783 15.3268C152.587 15.2454 152.376 15.2058 152.164 15.2107C151.949 15.208 151.735 15.2484 151.536 15.3295C151.337 15.4106 151.156 15.5308 151.004 15.683C150.851 15.8352 150.731 16.0163 150.65 16.2157C150.569 16.415 150.529 16.6286 150.532 16.8438Z" fill="white"/>
<path d="M61.199 12.2241C61.7445 12.185 62.2918 12.2674 62.8016 12.4654C63.3113 12.6634 63.7708 12.972 64.1468 13.3691C64.5228 13.7662 64.806 14.2418 64.976 14.7616C65.146 15.2813 65.1985 15.8324 65.1297 16.3749C65.1297 19.0436 63.6873 20.5777 61.199 20.5777H58.1816V12.2241H61.199ZM59.4791 19.3963H61.0541C61.4439 19.4196 61.8339 19.3557 62.1959 19.2092C62.5578 19.0628 62.8826 18.8374 63.1465 18.5497C63.4103 18.2619 63.6067 17.9188 63.7214 17.5456C63.836 17.1723 63.8659 16.7782 63.809 16.3919C63.8618 16.0071 63.8288 15.6155 63.7124 15.2449C63.5961 14.8744 63.3992 14.5342 63.1359 14.2487C62.8726 13.9632 62.5494 13.7395 62.1895 13.5935C61.8296 13.4476 61.4419 13.3831 61.0541 13.4046H59.4791V19.3963Z" stroke="white" stroke-width="2.8" mask="url(#path-3-inside-2_8715_356918)"/>
<path d="M66.5957 17.4227C66.5561 17.0084 66.6035 16.5904 66.7348 16.1955C66.8662 15.8006 67.0787 15.4375 67.3586 15.1296C67.6385 14.8216 67.9797 14.5755 68.3603 14.4071C68.7409 14.2387 69.1525 14.1518 69.5687 14.1518C69.9848 14.1518 70.3964 14.2387 70.777 14.4071C71.1576 14.5755 71.4988 14.8216 71.7787 15.1296C72.0586 15.4375 72.2711 15.8006 72.4025 16.1955C72.5338 16.5904 72.5812 17.0084 72.5416 17.4227C72.582 17.8374 72.5352 18.256 72.4041 18.6515C72.2731 19.047 72.0608 19.4108 71.7808 19.7194C71.5008 20.0279 71.1593 20.2745 70.7784 20.4433C70.3974 20.612 69.9853 20.6992 69.5687 20.6992C69.152 20.6992 68.7399 20.612 68.3589 20.4433C67.978 20.2745 67.6365 20.0279 67.3565 19.7194C67.0765 19.4108 66.8642 19.047 66.7332 18.6515C66.6021 18.256 66.5553 17.8374 66.5957 17.4227ZM71.2619 17.4227C71.2619 16.0562 70.648 15.2571 69.5707 15.2571C68.4893 15.2571 67.8809 16.0562 67.8809 17.4227C67.8809 18.8001 68.4893 19.5931 69.5707 19.5931C70.6481 19.5931 71.2619 18.7947 71.2619 17.4227Z" stroke="white" stroke-width="2.8" mask="url(#path-3-inside-2_8715_356918)"/>
<path d="M80.4449 20.5775H79.1543L77.8514 15.9346H77.7529L76.4555 20.5775H75.1771L73.4395 14.2734H74.7014L75.8307 19.0838H75.9236L77.2197 14.2734H78.4133L79.7094 19.0838H79.8078L80.9316 14.2734H82.1758L80.4449 20.5775Z" stroke="white" stroke-width="2.8" mask="url(#path-3-inside-2_8715_356918)"/>
<path d="M83.6373 14.2728H84.835V15.2743H84.9279C85.0857 14.9146 85.3517 14.6131 85.6889 14.4117C86.0261 14.2104 86.4177 14.1193 86.8092 14.1511C87.1159 14.1281 87.4239 14.1743 87.7104 14.2864C87.9968 14.3986 88.2543 14.5737 88.4639 14.7989C88.6734 15.0241 88.8297 15.2935 88.9209 15.5873C89.0122 15.881 89.0362 16.1916 88.9912 16.4958V20.5768H87.7471V16.8083C87.7471 15.7952 87.3068 15.2914 86.3867 15.2914C86.1785 15.2817 85.9706 15.3171 85.7773 15.3953C85.584 15.4734 85.4099 15.5925 85.2669 15.7442C85.124 15.896 85.0155 16.0768 84.9489 16.2744C84.8824 16.472 84.8594 16.6816 84.8814 16.8889V20.5769H83.6373L83.6373 14.2728Z" stroke="white" stroke-width="2.8" mask="url(#path-3-inside-2_8715_356918)"/>
<path d="M90.9736 11.8125H92.2178V20.5775H90.9736V11.8125Z" stroke="white" stroke-width="2.8" mask="url(#path-3-inside-2_8715_356918)"/>
<path d="M93.9476 17.4228C93.908 17.0085 93.9554 16.5905 94.0868 16.1956C94.2183 15.8006 94.4308 15.4376 94.7107 15.1296C94.9906 14.8216 95.3319 14.5755 95.7125 14.4071C96.0931 14.2387 96.5047 14.1518 96.9209 14.1518C97.3371 14.1518 97.7487 14.2387 98.1293 14.4071C98.51 14.5755 98.8512 14.8216 99.1311 15.1296C99.4111 15.4376 99.6236 15.8006 99.755 16.1956C99.8864 16.5905 99.9338 17.0085 99.8942 17.4228C99.9345 17.8375 99.8877 18.2561 99.7566 18.6516C99.6255 19.0472 99.4132 19.4109 99.1331 19.7195C98.8531 20.0281 98.5117 20.2746 98.1307 20.4434C97.7497 20.6121 97.3376 20.6993 96.9209 20.6993C96.5042 20.6993 96.0922 20.6121 95.7112 20.4434C95.3302 20.2746 94.9887 20.0281 94.7087 19.7195C94.4287 19.4109 94.2163 19.0472 94.0852 18.6516C93.9542 18.2561 93.9073 17.8375 93.9476 17.4228ZM98.6138 17.4228C98.6138 16.0563 98 15.2572 96.9226 15.2572C95.8412 15.2572 95.2328 16.0563 95.2328 17.4228C95.2328 18.8003 95.8412 19.5932 96.9226 19.5932C98 19.5932 98.6138 18.7948 98.6138 17.4228Z" stroke="white" stroke-width="2.8" mask="url(#path-3-inside-2_8715_356918)"/>
<path d="M101.203 18.7947C101.203 17.6599 102.048 17.0058 103.548 16.9128L105.255 16.8143V16.2702C105.255 15.6044 104.815 15.2284 103.965 15.2284C103.27 15.2284 102.789 15.4834 102.651 15.9291H101.446C101.573 14.8463 102.592 14.1518 104.022 14.1518C105.603 14.1518 106.494 14.9386 106.494 16.2702V20.5775H105.296V19.6916H105.198C104.998 20.0094 104.717 20.2685 104.385 20.4424C104.052 20.6162 103.679 20.6987 103.304 20.6814C103.04 20.7089 102.772 20.6807 102.519 20.5985C102.266 20.5163 102.033 20.382 101.835 20.2043C101.637 20.0265 101.479 19.8093 101.37 19.5665C101.261 19.3237 101.204 19.0608 101.203 18.7947ZM105.255 18.256V17.729L103.716 17.8274C102.848 17.8855 102.454 18.1808 102.454 18.7366C102.454 19.304 102.946 19.6342 103.623 19.6342C103.821 19.6542 104.022 19.6342 104.212 19.5753C104.402 19.5164 104.579 19.4197 104.731 19.2912C104.884 19.1626 105.008 19.0047 105.098 18.8268C105.188 18.649 105.242 18.4549 105.255 18.256Z" stroke="white" stroke-width="2.8" mask="url(#path-3-inside-2_8715_356918)"/>
<path d="M108.129 17.4228C108.129 15.4308 109.153 14.1689 110.746 14.1689C111.14 14.1507 111.531 14.2451 111.873 14.4409C112.216 14.6368 112.495 14.926 112.679 15.2749H112.772V11.8125H114.016V20.5775H112.824V19.5815H112.726C112.527 19.928 112.238 20.2137 111.889 20.4075C111.54 20.6014 111.145 20.6961 110.746 20.6814C109.142 20.6815 108.129 19.4196 108.129 17.4228ZM109.414 17.4228C109.414 18.7599 110.045 19.5645 111.099 19.5645C112.147 19.5645 112.795 18.7483 112.795 17.4282C112.795 16.1144 112.14 15.2865 111.099 15.2865C110.051 15.2865 109.414 16.0966 109.414 17.4228Z" stroke="white" stroke-width="2.8" mask="url(#path-3-inside-2_8715_356918)"/>
<path d="M119.164 17.4228C119.125 17.0085 119.172 16.5905 119.303 16.1956C119.435 15.8007 119.647 15.4376 119.927 15.1296C120.207 14.8217 120.548 14.5756 120.929 14.4072C121.31 14.2388 121.721 14.1518 122.137 14.1518C122.553 14.1518 122.965 14.2388 123.346 14.4072C123.726 14.5756 124.067 14.8217 124.347 15.1296C124.627 15.4376 124.84 15.8007 124.971 16.1956C125.102 16.5905 125.15 17.0085 125.11 17.4228C125.151 17.8375 125.104 18.2561 124.973 18.6516C124.842 19.0471 124.629 19.4109 124.349 19.7195C124.069 20.028 123.728 20.2746 123.347 20.4434C122.966 20.6121 122.554 20.6993 122.137 20.6993C121.721 20.6993 121.309 20.6121 120.928 20.4434C120.547 20.2746 120.205 20.028 119.925 19.7195C119.645 19.4109 119.433 19.0471 119.302 18.6516C119.171 18.2561 119.124 17.8375 119.164 17.4228ZM123.831 17.4228C123.831 16.0563 123.217 15.2572 122.139 15.2572C121.058 15.2572 120.45 16.0563 120.45 17.4228C120.45 18.8002 121.058 19.5932 122.139 19.5932C123.217 19.5932 123.831 18.7947 123.831 17.4228Z" stroke="white" stroke-width="2.8" mask="url(#path-3-inside-2_8715_356918)"/>
<path d="M126.779 14.2728H127.977V15.2743H128.07C128.227 14.9146 128.493 14.6131 128.83 14.4117C129.168 14.2104 129.559 14.1193 129.951 14.1511C130.258 14.1281 130.566 14.1743 130.852 14.2864C131.138 14.3986 131.396 14.5737 131.605 14.7989C131.815 15.0241 131.971 15.2935 132.063 15.5873C132.154 15.881 132.178 16.1916 132.133 16.4958V20.5768H130.889V16.8083C130.889 15.7952 130.448 15.2914 129.528 15.2914C129.32 15.2817 129.112 15.3171 128.919 15.3953C128.726 15.4734 128.552 15.5925 128.409 15.7442C128.266 15.896 128.157 16.0768 128.091 16.2744C128.024 16.472 128.001 16.6816 128.023 16.8889V20.5769H126.779V14.2728Z" stroke="white" stroke-width="2.8" mask="url(#path-3-inside-2_8715_356918)"/>
<path d="M139.163 12.7039V14.3021H140.529V15.3501H139.163V18.5917C139.163 19.2521 139.435 19.5412 140.054 19.5412C140.213 19.5407 140.371 19.5311 140.529 19.5125V20.5488C140.305 20.5888 140.079 20.6101 139.852 20.6124C138.468 20.6124 137.917 20.1257 137.917 18.9102V15.35H136.917V14.3021H137.917V12.7039H139.163Z" stroke="white" stroke-width="2.8" mask="url(#path-3-inside-2_8715_356918)"/>
<path d="M142.229 11.8125H143.463V15.2865H143.561C143.727 14.9235 144 14.6203 144.344 14.4182C144.688 14.2161 145.086 14.125 145.483 14.1572C145.788 14.1406 146.094 14.1916 146.377 14.3064C146.66 14.4213 146.914 14.5972 147.122 14.8217C147.329 15.0462 147.484 15.3137 147.576 15.605C147.668 15.8964 147.695 16.2046 147.654 16.5074V20.5775H146.409V16.8144C146.409 15.8074 145.94 15.2975 145.061 15.2975C144.847 15.2799 144.632 15.3093 144.431 15.3836C144.229 15.4579 144.047 15.5752 143.896 15.7275C143.744 15.8797 143.628 16.0631 143.555 16.2649C143.483 16.4667 143.455 16.682 143.474 16.8957V20.5775H142.23L142.229 11.8125Z" stroke="white" stroke-width="2.8" mask="url(#path-3-inside-2_8715_356918)"/>
<path d="M154.908 18.8754C154.739 19.4516 154.373 19.9499 153.873 20.2833C153.374 20.6168 152.773 20.764 152.176 20.6992C151.761 20.7102 151.348 20.6306 150.967 20.4661C150.585 20.3016 150.244 20.056 149.967 19.7464C149.69 19.4368 149.484 19.0706 149.362 18.6733C149.241 18.2759 149.208 17.8569 149.264 17.4453C149.209 17.0325 149.243 16.6126 149.364 16.214C149.485 15.8155 149.691 15.4476 149.966 15.1353C150.242 14.823 150.581 14.5736 150.962 14.4039C151.342 14.2342 151.754 14.1482 152.171 14.1518C153.925 14.1518 154.983 15.3502 154.983 17.3298V17.7639H150.532V17.8336C150.512 18.065 150.541 18.2978 150.617 18.5173C150.693 18.7367 150.814 18.9379 150.972 19.108C151.13 19.278 151.322 19.4131 151.535 19.5047C151.748 19.5962 151.978 19.6422 152.211 19.6396C152.508 19.6753 152.81 19.6218 153.077 19.4857C153.344 19.3496 153.564 19.1371 153.71 18.8754L154.908 18.8754ZM150.532 16.8438H153.716C153.732 16.6322 153.703 16.4197 153.631 16.2199C153.56 16.0201 153.448 15.8374 153.302 15.6836C153.155 15.5298 152.979 15.4083 152.783 15.3268C152.587 15.2454 152.376 15.2058 152.164 15.2107C151.949 15.208 151.735 15.2484 151.536 15.3295C151.337 15.4106 151.156 15.5308 151.004 15.683C150.851 15.8352 150.731 16.0163 150.65 16.2157C150.569 16.415 150.529 16.6286 150.532 16.8438Z" stroke="white" stroke-width="2.8" mask="url(#path-3-inside-2_8715_356918)"/>
</g>
<defs>
<clipPath id="clip0_8715_356918">
<rect width="189" height="56" fill="white"/>
</clipPath>
</defs>
</svg>
